<?xml version="1.0" standalone="no"?>
<!DOCTYPE svg PUBLIC "-//W3C//DTD SVG 20010904//EN" "http://www.w3.org/TR/2001/REC-SVG-20010904/DTD/svg10.dtd">
<svg version="1.0" xmlns="http://www.w3.org/2000/svg" width="825.000000pt" height="825.000000pt" viewBox="0 0 460 485" preserveAspectRatio="xMidYMid meet">

  <g transform="translate(-206,212.5) scale(0.1,-0.1)" stroke="none">
    <path d="m2300 -184 c0 -2162 -2 -2324 -25 -2300 -9 10 -17 2781 -10 3622 6 811 10 967 21 967 12 0 14 -351 14 -2289z m70 -6 c0 -2033 -2 -2295 -15 -2295 -13 0 -15 262 -15 2295 0 2033 2 2295 15 2295 13 0 15 -262 15 -2295z m150 0 c0 -2033 -2 -2295 -15 -2295 -13 0 -15 262 -15 2295 0 2033 2 2295 15 2295 13 0 15 -262 15 -2295z m270 0 c0 -2033 -2 -2295 -15 -2295 -13 0 -15 262 -15 2295 0 2033 2 2295 15 2295 13 0 15 -262 15 -2295z m70 0 c0 -2033 -2 -2295 -15 -2295 -13 0 -15 262 -15 2295 0 2033 2 2295 15 2295 13 0 15 -262 15 -2295z m180 0 l0 -2295 -30 0 -30 0 0 2295 0 2295 30 0 30 0 0 -2295z m180 0 l0 -2295 -65 0 -65 0 0 2295 0 2295 65 0 65 0 0 -2295z m80 0 c0 -2033 -2 -2295 -15 -2295 -13 0 -15 262 -15 2295 0 2033 2 2295 15 2295 13 0 15 -262 15 -2295z m180 0 l0 -2295 -30 0 -30 0 0 2295 0 2295 30 0 30 0 0 -2295z m90 0 c0 -2033 -2 -2295 -15 -2295 -13 0 -15 262 -15 2295 0 2033 2 2295 15 2295 13 0 15 -262 15 -2295z m80 0 c0 -2033 -2 -2295 -15 -2295 -13 0 -15 262 -15 2295 0 2033 2 2295 15 2295 13 0 15 -262 15 -2295z m330 0 l0 -2295 -50 0 -50 0 0 2295 0 2295 50 0 50 0 0 -2295z m110 0 l0 -2295 -30 0 -30 0 0 2295 0 2295 30 0 30 0 0 -2295z m150 0 l0 -2295 -30 0 -30 0 0 2295 0 2295 30 0 30 0 0 -2295z m160 0 c0 -2033 -2 -2295 -15 -2295 -13 0 -15 262 -15 2295 0 2033 2 2295 15 2295 13 0 15 -262 15 -2295z m180 0 l0 -2295 -30 0 -30 0 0 2295 0 2295 30 0 30 0 0 -2295z m150 0 l0 -2295 -45 0 -45 0 0 2295 0 2295 45 0 45 0 0 -2295z m70 0 c0 -2033 -2 -2295 -15 -2295 -13 0 -15 262 -15 2295 0 2033 2 2295 15 2295 13 0 15 -262 15 -2295z m150 0 c0 -2033 -2 -2295 -15 -2295 -13 0 -15 262 -15 2295 0 2033 2 2295 15 2295 13 0 15 -262 15 -2295z m90 0 c0 -2033 -2 -2295 -15 -2295 -13 0 -15 262 -15 2295 0 2033 2 2295 15 2295 13 0 15 -262 15 -2295z m180 0 l0 -2295 -45 0 -45 0 0 2295 0 2295 45 0 45 0 0 -2295z m90 0 c0 -2033 -2 -2295 -15 -2295 -13 0 -15 262 -15 2295 0 2033 2 2295 15 2295 13 0 15 -262 15 -2295z m130 0 l0 -2295 -30 0 -30 0 0 2295 0 2295 30 0 30 0 0 -2295z m240 0 c0 -2033 -2 -2295 -15 -2295 -13 0 -15 262 -15 2295 0 2033 2 2295 15 2295 13 0 15 -262 15 -2295z m150 0 l0 -2295 -30 0 -30 0 0 2295 0 2295 30 0 30 0 0 -2295z m70 0 c0 -2033 -2 -2295 -15 -2295 -13 0 -15 262 -15 2295 0 2033 2 2295 15 2295 13 0 15 -262 15 -2295z m180 0 l0 -2295 -30 0 -30 0 0 2295 0 2295 30 0 30 0 0 -2295z m220 0 c0 -2033 -2 -2295 -15 -2295 -13 0 -15 262 -15 2295 0 2033 2 2295 15 2295 13 0 15 -262 15 -2295z" fill="#9BD900"/>

    <path d="m4425 2019 c76 -7 170 -41 268 -97 104 -58 154 -117 222 -262 68 -145 115 -322 127 -485 3 -34 5 -36 73 -57 39 -13 99 -26 135 -29 36 -4 76 -13 90 -20 32 -16 138 -126 181 -187 20 -30 61 -67 104 -95 38 -26 120 -95 180 -153 l110 -106 65 32 c93 46 113 41 200 -52 39 -41 98 -98 133 -125 86 -70 221 -158 241 -158 9 0 25 -9 36 -20 17 -17 19 -28 14 -73 -4 -40 -1 -63 15 -100 17 -39 18 -52 9 -75 -13 -31 -187 -212 -204 -212 -6 0 -23 9 -38 21 -37 29 -36 82 4 135 16 21 30 46 30 54 0 21 -53 150 -62 150 -10 0 -151 64 -218 99 -81 42 -102 45 -140 18 -19 -12 -54 -49 -80 -81 -47 -61 -73 -76 -162 -91 -21 -3 -38 -12 -38 -19 0 -29 37 -46 122 -55 69 -7 96 -15 135 -38 26 -16 53 -39 59 -51 14 -28 -28 -237 -60 -301 -34 -66 -78 -252 -81 -344 -2 -43 -5 -79 -7 -80 -2 -1 -54 -51 -115 -111 -110 -108 -111 -108 -136 -92 -30 20 -43 81 -24 123 6 15 36 50 66 78 51 48 53 51 46 90 -3 22 -7 47 -7 55 0 15 25 155 32 175 7 21 -13 185 -24 200 -11 15 -14 14 -39 -6 -16 -12 -41 -45 -58 -74 -23 -41 -45 -62 -107 -102 -111 -72 -135 -83 -189 -83 -61 0 -140 37 -252 118 -46 34 -91 64 -102 67 -18 6 -99 118 -99 137 0 13 -52 115 -86 169 -21 34 -28 39 -35 27 -9 -17 24 -142 41 -153 4 -3 14 -22 21 -42 24 -74 78 -152 116 -168 19 -8 81 -45 136 -81 115 -76 215 -124 257 -124 15 0 44 7 63 15 48 20 47 20 47 -23 0 -25 -11 -56 -33 -93 -34 -56 -54 -96 -82 -164 -9 -22 -32 -57 -52 -77 l-36 -36 36 -37 c49 -50 80 -117 85 -184 3 -31 9 -59 15 -62 13 -9 -1 -27 -89 -122 -39 -43 -78 -77 -87 -77 -26 0 -48 53 -41 100 4 22 13 45 20 51 22 18 16 30 -11 23 -18 -4 -32 -1 -45 11 -18 17 -19 16 -25 -11 -17 -75 -69 -243 -87 -278 -34 -67 -137 -150 -273 -219 -93 -48 -146 -105 -169 -182 -10 -33 -22 -64 -26 -70 -4 -5 -11 -35 -14 -66 l-7 -57 -150 -148 c-82 -82 -155 -151 -162 -153 -23 -7 -67 -55 -67 -72 0 -40 -114 -109 -178 -109 -23 0 -52 44 -52 77 1 41 43 106 121 186 107 108 207 236 219 277 9 33 11 68 10 181 l-1 67 -51 -22 c-33 -13 -57 -31 -67 -50 -51 -91 -62 -100 -147 -113 -43 -7 -110 -11 -148 -8 -58 4 -74 9 -98 32 -33 31 -34 39 -12 82 16 32 15 35 -19 116 l-34 84 18 76 c9 41 21 126 25 188 l6 113 -78 69 c-44 37 -86 78 -94 91 -13 21 -13 26 2 40 15 15 25 16 95 4 93 -14 178 -34 250 -57 49 -15 57 -15 119 1 60 14 73 22 115 69 27 28 48 61 49 72 1 44 52 211 79 259 16 28 32 65 35 82 5 22 19 37 48 55 85 51 116 85 124 142 5 29 7 70 6 92 -5 85 -54 334 -83 421 -26 79 -31 110 -35 230 -5 120 -2 162 21 299 28 168 64 272 127 372 17 26 37 69 44 95 15 48 53 87 121 121 29 15 32 22 38 80 9 83 -9 200 -47 305 -25 68 -42 96 -88 146 -32 34 -80 73 -107 86 -44 23 -58 25 -178 24 -149 -1 -232 -21 -349 -83 -73 -38 -218 -167 -271 -240 -16 -23 -43 -59 -59 -79 -82 -107 -175 -346 -205 -532 -26 -154 -32 -246 -37 -565 -2 -148 -8 -299 -14 -335 -5 -36 -17 -110 -25 -165 -18 -115 -55 -256 -89 -341 -82 -207 -122 -273 -216 -364 -124 -121 -184 -150 -322 -158 -101 -5 -149 9 -242 71 -178 120 -277 320 -362 732 -35 169 -41 297 -19 426 27 165 80 249 154 249 53 0 76 -32 76 -105 0 -55 -14 -225 -19 -234 -2 -3 2 -64 9 -136 26 -256 74 -420 165 -559 123 -189 238 -245 367 -179 110 55 176 150 228 327 54 189 71 327 80 666 14 555 31 725 95 939 37 123 72 213 139 352 72 151 137 243 245 347 89 84 106 96 264 175 167 83 194 92 337 110 30 4 107 1 200 -9z" fill="#FFFFFF"/>

    <path d=" m4495 1901 c125 -41 227 -105 282 -179 102 -138 175 -347 199 -572 3 -33 9 -63 12 -66 13 -12 209 -59 246 -59 33 0 45 -7 98 -62 33 -35 79 -89 103 -121 28 -37 72 -76 122 -109 43 -29 119 -94 168 -144 l90 -92 62 33 c86 45 107 40 190 -49 37 -39 94 -93 128 -120 76 -61 203 -146 219 -146 6 0 22 -7 34 -16 18 -13 22 -25 22 -73 0 -32 7 -75 16 -96 9 -22 13 -49 9 -64 -7 -30 -172 -201 -194 -201 -52 0 -69 87 -26 138 32 38 31 66 0 139 l-26 58 -92 39 c-51 21 -109 49 -130 63 -81 51 -130 38 -197 -52 -22 -30 -51 -61 -63 -69 -16 -11 -117 -36 -143 -36 -7 0 10 -41 21 -50 7 -6 48 -15 91 -20 148 -16 219 -69 195 -143 -5 -18 -15 -61 -21 -97 -6 -36 -24 -95 -40 -131 -17 -36 -34 -85 -39 -110 -5 -24 -17 -78 -26 -119 -9 -41 -15 -94 -14 -118 3 -44 2 -45 -106 -153 -101 -100 -111 -107 -130 -95 -26 18 -38 73 -22 111 6 17 36 53 66 81 l55 51 -13 44 c-10 37 -9 56 5 119 21 89 20 230 -2 272 -8 15 -16 28 -19 28 -11 0 -86 -88 -91 -107 -3 -13 -35 -43 -70 -68 -177 -127 -237 -126 -420 5 -46 32 -97 66 -114 75 -34 17 -72 73 -103 149 -12 28 -32 69 -47 91 -14 22 -32 53 -40 68 -13 25 -16 27 -26 12 -16 -22 1 -84 54 -195 59 -124 70 -136 167 -191 48 -27 103 -60 121 -74 46 -35 176 -95 205 -95 13 1 35 7 49 15 14 8 31 14 38 15 21 0 13 -63 -14 -110 -49 -83 -72 -130 -83 -163 -6 -19 -27 -49 -46 -67 -19 -19 -35 -38 -35 -42 0 -5 16 -25 35 -45 44 -45 70 -102 78 -168 3 -27 8 -57 12 -65 6 -16 -141 -180 -162 -180 -6 0 -18 11 -27 25 -19 28 -13 97 10 116 23 19 16 31 -14 24 -20 -4 -33 -1 -42 10 -19 23 -27 18 -35 -22 -9 -55 -43 -170 -67 -230 -29 -76 -135 -165 -283 -241 -108 -55 -154 -127 -188 -297 -12 -60 -13 -61 -158 -200 -81 -77 -160 -150 -178 -163 -17 -13 -31 -32 -31 -42 0 -25 -73 -86 -112 -94 -74 -15 -98 0 -98 61 1 43 29 86 115 177 100 104 192 216 204 247 10 28 14 91 12 191 l-1 66 -51 -21 c-43 -18 -58 -32 -90 -83 -38 -60 -39 -61 -102 -72 -76 -14 -177 -16 -209 -3 -13 5 -33 19 -46 30 -21 21 -21 24 -7 51 21 40 19 57 -15 140 -30 72 -30 73 -15 137 8 35 18 116 22 179 7 131 10 124 -89 201 -70 53 -86 79 -65 100 13 13 25 14 84 4 99 -17 202 -40 250 -58 38 -13 49 -13 105 2 51 13 72 25 111 63 26 25 47 53 47 62 0 40 45 192 76 253 19 37 34 75 34 83 0 17 59 74 76 74 7 0 26 12 43 26 57 48 67 154 32 333 -11 53 -22 117 -26 143 -3 26 -19 82 -34 125 -44 120 -46 292 -7 511 20 113 33 158 70 236 24 53 53 108 63 123 11 16 25 47 31 69 12 42 45 75 109 107 29 15 32 22 38 80 9 79 -13 206 -51 307 -23 58 -42 88 -86 133 -86 87 -127 102 -268 99 -206 -4 -346 -60 -485 -193 -44 -43 -93 -96 -110 -119 -16 -22 -42 -57 -57 -76 -44 -57 -114 -203 -148 -304 -59 -183 -79 -369 -85 -800 -4 -378 -57 -629 -191 -907 -38 -79 -59 -108 -132 -182 -119 -119 -172 -144 -307 -149 -115 -4 -156 8 -248 77 -150 110 -241 296 -318 646 -29 128 -33 170 -34 285 0 164 21 266 68 337 25 36 40 49 67 54 72 15 95 -31 83 -168 -14 -154 -7 -338 17 -458 39 -198 104 -341 209 -456 68 -76 112 -99 189 -99 51 0 66 5 120 40 75 49 121 109 161 212 73 187 96 359 111 833 6 193 13 368 15 390 36 315 90 508 213 750 84 166 164 270 282 367 40 32 274 155 355 187 100 38 327 37 450 -3z" fill="#34B900"/>

    <path d="m3470 1990 l0 -145 -565 0 -565 0 0 -595 0 -595 -135 0 -135 0 0 740 0 740 700 0 700 0 0 -145z m3030 -595 l0 -740 -135 0 -135 0 0 595 0 595 -562 2 -563 3 -3 129 c-1 72 0 136 2 143 4 11 139 13 701 13 l695 0 0 -740z m-4160 -3010 l0 -600 565 0 565 0 0 -140 0 -140 -700 0 -700 0 0 740 0 740 135 0 135 0 0 -600z m4160 -140 l0 -740 -700 0 -700 0 0 140 0 140 565 0 565 0 0 593 c0 327 3 597 7 600 3 4 64 7 135 7 l128 0 0 -740z" fill="#34B900"/>
  </g>

</svg>
